<svg width="130" height="129" viewBox="0 0 130 129" fill="none" xmlns="http://www.w3.org/2000/svg">
<rect x="0.5" width="129" height="129" rx="64.5" fill="#04265E"/>
<mask id="mask0_75_25737" style="mask-type:alpha" maskUnits="userSpaceOnUse" x="8" y="8" width="114" height="113">
<rect x="8.5625" y="8.0625" width="112.875" height="112.875" rx="56.4375" fill="#04265E"/>
</mask>
<g mask="url(#mask0_75_25737)">
<path fill-rule="evenodd" clip-rule="evenodd" d="M40.273 46.7253C39.3474 45.8021 38.6301 44.7349 38.1314 43.5906C36.9855 40.9648 36.9889 37.9354 38.2698 35.3266C39.5694 32.6794 42.0235 30.7943 44.879 30.1179C45.685 29.9247 46.527 29.828 47.3826 29.841C49.3346 40.9648 40.273 46.7253 40.273 46.7253Z" fill="#5FBBE8"/>
<path fill-rule="evenodd" clip-rule="evenodd" d="M40.3075 46.6862C39.3887 45.763 38.6767 44.6959 38.1816 43.5515C39.3124 41.5698 40.4465 39.4604 41.5654 37.2236C42.7996 34.759 43.8981 32.3701 44.8797 30.0788C45.6799 29.8856 46.5156 29.789 47.365 29.8019C45.0136 35.43 42.6606 41.0581 40.3075 46.6862Z" fill="#5FAEDE"/>
<path fill-rule="evenodd" clip-rule="evenodd" d="M94.9001 57.6398C93.9029 71.4861 62.1852 76.0608 47.3498 67.6919C43.2272 65.3671 40.4086 62.0412 39.9134 57.6398C37.6325 37.3942 51.0247 18.8574 66.4096 18.8574C71.9873 18.8574 78.5367 20.9941 83.9601 25.7272C90.9114 31.7863 96.0227 42.1037 94.9001 57.6398Z" fill="#5FBBE8"/>
<path fill-rule="evenodd" clip-rule="evenodd" d="M86.7615 45.4654C86.7615 48.2481 83.7046 49.9619 79.7648 50.9794C75.6141 52.0525 70.4852 52.3546 66.9146 52.3204C61.8027 52.2711 51.9413 51.3842 48.386 48.1474C47.5524 47.389 47.0659 46.5 47.0659 45.4654C47.0659 42.4513 48.3213 39.7222 50.3542 37.745C52.3853 35.77 55.1939 34.5488 58.295 34.5488H75.5308C79.1371 34.5488 82.3454 36.2005 84.3987 38.7667C85.8804 40.6176 86.7615 42.942 86.7615 45.4654Z" fill="#294F81"/>
<path fill-rule="evenodd" clip-rule="evenodd" d="M86.7635 45.4249C86.7635 48.2221 83.7194 49.9449 79.7962 50.9677C75.6629 52.0464 70.5555 52.35 66.9999 52.3157C61.9095 52.2661 52.0895 51.3746 48.5491 48.121C58.6316 47.8152 75.773 46.1465 84.4106 38.6914C85.886 40.5519 86.7635 42.8884 86.7635 45.4249Z" fill="#33487A"/>
<path fill-rule="evenodd" clip-rule="evenodd" d="M94.9033 57.6039C93.9064 71.4671 62.1962 76.0474 47.3643 67.6683C56.4265 69.1757 83.403 72.4864 88.2571 59.4583C92.4313 48.2546 87.2703 33.3056 83.9659 25.6523C90.9156 31.7188 96.0257 42.0489 94.9033 57.6039Z" fill="#5FAEDE"/>
<path fill-rule="evenodd" clip-rule="evenodd" d="M48.6709 32.5186C49.4975 33.6061 54.5731 31.33 57.9802 28.8247C61.2473 26.4235 64.5827 22.636 63.8466 21.5641C63.1942 20.6122 59.4455 21.969 57.0888 23.22C51.8116 26.0202 47.7726 31.3337 48.6709 32.5186Z" fill="#B1ECED"/>
<path fill-rule="evenodd" clip-rule="evenodd" d="M41.4444 54.1619C41.5636 57.8895 43.7984 61.4281 44.7034 61.1868C45.6521 60.9335 45.2659 56.4814 44.8293 54.0341C44.7034 53.3316 43.9344 49.0345 42.9488 49.0528C42.1731 49.0674 41.3671 51.7476 41.4444 54.1619Z" fill="#B1ECED"/>
<path fill-rule="evenodd" clip-rule="evenodd" d="M83.2073 43.1455C83.2073 45.9268 80.9535 48.1814 78.1721 48.1814C76.0225 48.1814 74.1887 46.8366 73.4648 44.9416C73.2531 44.3839 73.1353 43.7783 73.1353 43.1455C73.1353 40.3642 75.389 38.1094 78.1721 38.1094C80.2193 38.1094 81.9797 39.3312 82.7651 41.0852C83.0502 41.7144 83.2073 42.4115 83.2073 43.1455Z" fill="#393760"/>
<path fill-rule="evenodd" clip-rule="evenodd" d="M78.1731 37.2344C74.905 37.2344 72.2476 39.8923 72.2476 43.1591C72.2476 43.8852 72.3779 44.5961 72.6353 45.2721C73.5051 47.5518 75.7302 49.0838 78.1731 49.0838C81.4396 49.0838 84.097 46.4259 84.097 43.1591C84.097 42.3141 83.922 41.4979 83.5755 40.7328C82.625 38.6087 80.5046 37.2344 78.1731 37.2344ZM78.1714 38.0991C80.2284 38.0991 81.9989 39.3268 82.788 41.089C83.0745 41.7213 83.2324 42.4217 83.2324 43.1591C83.2324 45.9536 80.9678 48.2189 78.1731 48.2189C76.0132 48.2189 74.1707 46.8677 73.4433 44.9637C73.2306 44.4034 73.1122 43.795 73.1122 43.1591C73.1122 40.3646 75.3768 38.0991 78.1714 38.0991Z" fill="#46AED2"/>
<path fill-rule="evenodd" clip-rule="evenodd" d="M82.6148 41.0721C80.763 45.6206 76.1679 45.4911 73.4667 44.9623C73.2547 44.4049 73.137 43.7994 73.1353 43.166C73.1252 40.3827 75.3387 38.1187 78.0803 38.1094C80.0969 38.1026 81.8361 39.3194 82.6148 41.0721Z" fill="#2F4572"/>
<path fill-rule="evenodd" clip-rule="evenodd" d="M77.876 41.5083C77.876 42.4081 77.1471 43.1375 76.2467 43.1375C75.3464 43.1375 74.6174 42.4081 74.6174 41.5083C74.6174 40.6085 75.3464 39.8789 76.2467 39.8789C77.1471 39.8789 77.876 40.6085 77.876 41.5083Z" fill="#B1ECED"/>
<path fill-rule="evenodd" clip-rule="evenodd" d="M82.2308 44.0449C82.5113 44.2314 82.1291 46.0107 80.8495 46.6914C79.7119 47.2964 78.2061 46.8535 78.1711 46.526C78.1448 46.2854 78.9248 46.2196 80.2307 45.4382C81.605 44.616 82.0345 43.915 82.2308 44.0449Z" fill="#B1ECED"/>
<path fill-rule="evenodd" clip-rule="evenodd" d="M60.9922 43.1279C60.9922 45.9092 58.7384 48.1638 55.957 48.1638C53.8074 48.1638 51.9719 46.819 51.2497 44.9239C51.0363 44.3663 50.9202 43.7608 50.9202 43.1279C50.9202 40.3464 53.174 38.0918 55.957 38.0918C58.0042 38.0918 59.7646 39.3136 60.55 41.0676C60.8334 41.6969 60.9922 42.3939 60.9922 43.1279Z" fill="#393760"/>
<path fill-rule="evenodd" clip-rule="evenodd" d="M55.9568 37.2031C52.6887 37.2031 50.0312 39.8609 50.0312 43.1279C50.0312 43.8541 50.1616 44.5649 50.419 45.2408C51.2888 47.5207 53.5139 49.0526 55.9568 49.0526C59.2233 49.0526 61.8807 46.3948 61.8807 43.1279C61.8807 42.2829 61.7057 41.4665 61.3592 40.7016C60.4087 38.5775 58.2866 37.2031 55.9568 37.2031ZM55.9551 38.0679C58.0121 38.0679 59.7825 39.2955 60.5717 41.0578C60.8565 41.6901 61.016 42.3905 61.016 43.1279C61.016 45.9224 58.7515 48.1878 55.9568 48.1878C53.7969 48.1878 51.9527 46.8366 51.227 44.9324C51.0126 44.3722 50.8959 43.7638 50.8959 43.1279C50.8959 40.3332 53.1604 38.0679 55.9551 38.0679Z" fill="#46AED2"/>
<path fill-rule="evenodd" clip-rule="evenodd" d="M60.3998 41.0546C58.5479 45.603 53.9528 45.4735 51.2499 44.9447C51.0397 44.3873 50.9219 43.7818 50.9202 43.1485C50.9101 40.3652 53.1236 38.1013 55.8652 38.0918C57.8819 38.0852 59.621 39.3021 60.3998 41.0546Z" fill="#2F4572"/>
<path fill-rule="evenodd" clip-rule="evenodd" d="M55.6607 41.5024C55.6607 42.4021 54.9301 43.1316 54.0314 43.1316C53.131 43.1316 52.4021 42.4021 52.4021 41.5024C52.4021 40.6024 53.131 39.873 54.0314 39.873C54.9301 39.873 55.6607 40.6024 55.6607 41.5024Z" fill="#B1ECED"/>
<path fill-rule="evenodd" clip-rule="evenodd" d="M60.0118 44.0527C60.2923 44.2392 59.9101 46.0185 58.6305 46.6992C57.4946 47.3042 55.987 46.8613 55.952 46.5338C55.9274 46.2932 56.7075 46.2274 58.0134 45.446C59.3877 44.6238 59.8172 43.9228 60.0118 44.0527Z" fill="#B1ECED"/>
<path fill-rule="evenodd" clip-rule="evenodd" d="M68.4004 35.6011C68.4502 35.9103 66.177 36.639 63.8214 36.8388C60.0007 37.1629 56.5008 36.0497 56.5523 35.6601C56.5746 35.4813 58.9902 35.4598 63.8214 35.4243C67.7021 35.3957 68.3747 35.4379 68.4004 35.6011Z" fill="#296ABD"/>
<path fill-rule="evenodd" clip-rule="evenodd" d="M92.9845 89.2549C92.9845 103.195 83.1707 119.569 67.5783 119.569C57.9174 119.569 49.9658 113.674 45.3172 105.793C42.4593 100.955 40.8469 95.3671 40.8469 89.9354C40.8469 75.6543 56.4885 76.3349 66.4009 76.3349C77.2732 76.3349 90.1776 75.505 92.5852 85.594C92.8485 86.682 92.9845 87.898 92.9845 89.2549Z" fill="#5FBBE8"/>
<path d="M87.4099 84.8535H70.7258V88.7464H87.4099V84.8535Z" fill="#FFD15D"/>
<path fill-rule="evenodd" clip-rule="evenodd" d="M92.9816 89.4853C92.9816 103.463 83.1623 119.882 67.5612 119.882C57.8949 119.882 49.9388 113.971 45.2876 106.069C54.976 110.623 82.5758 120.057 92.5821 85.8145C92.8456 86.9054 92.9816 88.1247 92.9816 89.4853Z" fill="#5FAEDE"/>
<path fill-rule="evenodd" clip-rule="evenodd" d="M46.2191 84.4574C44.1918 87.7219 45.6255 92.3673 49.1069 94.1909C52.7857 96.1185 57.7927 94.3902 59.1601 90.5588C60.4611 86.9188 57.9559 82.8392 54.3673 81.6946C51.4897 80.777 47.9045 81.7433 46.2191 84.4574Z" fill="#B1ECED"/>
<path fill-rule="evenodd" clip-rule="evenodd" d="M35.574 80.5853C38.6656 82.0605 37.2805 85.7462 33.7898 90.3327C29.6175 95.8096 17.8887 102.276 10.4928 98.7116C10.4911 98.7113 10.4911 98.7113 10.4911 98.7113C9.81634 98.3861 9.18043 97.9798 8.5868 97.4803C1.48525 91.499 27.6116 79.8764 31.4643 79.8867C33.2909 79.892 34.6371 80.1372 35.574 80.5853Z" fill="#5FBBE8"/>
<path fill-rule="evenodd" clip-rule="evenodd" d="M35.5638 80.4766C38.674 81.9599 37.2805 85.6661 33.7688 90.278C29.5715 95.7853 17.7723 102.287 10.332 98.7033C17.6957 97.5207 29.9747 93.5743 35.5638 80.4766Z" fill="#5FAEDE"/>
<path fill-rule="evenodd" clip-rule="evenodd" d="M13.281 90.0076C15.1681 88.9107 18.4557 87.3956 18.8765 88.0248C19.3057 88.6675 16.7538 91.5637 13.5975 93.2091C11.4428 94.3324 8.60971 95.0795 8.28988 94.4753C7.92964 93.792 10.82 91.438 13.281 90.0076Z" fill="#B1ECED"/>
<path fill-rule="evenodd" clip-rule="evenodd" d="M96.9682 85.2217C97.7307 88.5879 101.649 88.0422 106.917 85.6234C113.206 82.734 122.138 72.6313 120.283 64.5691C120.283 64.5668 120.283 64.5668 120.283 64.5668C120.114 63.8322 119.857 63.1169 119.498 62.423C115.209 54.116 98.0371 77.2347 97.1946 81.0262C96.7946 82.8221 96.7367 84.2012 96.9682 85.2217Z" fill="#5FBBE8"/>
<path fill-rule="evenodd" clip-rule="evenodd" d="M97.126 85.2526C97.8833 88.5876 101.775 88.047 107.007 85.6505C113.253 82.7879 122.124 72.7786 120.282 64.791C117.528 71.6654 111.025 82.6965 97.126 85.2526Z" fill="#5FAEDE"/>
<path fill-rule="evenodd" clip-rule="evenodd" d="M111.075 65.7904C109.576 67.4089 107.355 70.3162 107.877 70.8683C108.412 71.432 111.824 69.5546 114.144 66.806C115.729 64.9296 117.096 62.3021 116.573 61.8551C115.984 61.3494 113.029 63.6799 111.075 65.7904Z" fill="#B1ECED"/>
<path fill-rule="evenodd" clip-rule="evenodd" d="M55.6599 54.6816C56.5515 55.1622 57.4515 55.5889 58.3652 55.9694C59.2788 56.3504 60.2009 56.6895 61.1349 56.9707C63.0013 57.5367 64.9101 57.8771 66.824 57.9256C67.78 57.9444 68.7344 57.8845 69.6837 57.7607C70.6313 57.6287 71.5654 57.4028 72.496 57.1356C74.3436 56.5552 76.1217 55.6949 77.8776 54.6816C76.514 56.1809 74.8073 57.3938 72.907 58.2388C71.9475 58.6394 70.9472 58.9592 69.9181 59.1606C69.6617 59.2137 69.4001 59.2422 69.142 59.2833C68.8822 59.3276 68.6224 59.3491 68.3608 59.37C67.8378 59.4211 67.313 59.4192 66.79 59.4214C64.6927 59.3678 62.626 58.8834 60.7308 58.0717C59.7832 57.6638 58.8746 57.176 58.0204 56.6145C57.5942 56.3315 57.1781 56.0363 56.7841 55.7119C56.3884 55.3904 56.003 55.0561 55.6599 54.6816Z" fill="#33487A"/>
<path fill-rule="evenodd" clip-rule="evenodd" d="M68.99 53.4941C68.99 53.4941 80.7885 56.7868 94.4663 53.4941C94.4663 53.4941 84.6744 66.1582 68.99 53.4941Z" fill="#5FBBE8"/>
<path d="M66.3533 38.1931C83.1068 38.1931 96.6881 32.8844 96.6881 26.3358C96.6881 19.7872 83.1068 14.4785 66.3533 14.4785C49.5999 14.4785 36.0186 19.7872 36.0186 26.3358C36.0186 32.8844 49.5999 38.1931 66.3533 38.1931Z" fill="#2B9ED8"/>
<path d="M66.6122 38.1894C81.6165 38.1894 93.7798 35.2133 93.7798 31.542C93.7798 27.8707 81.6165 24.8945 66.6122 24.8945C51.6079 24.8945 39.4446 27.8707 39.4446 31.542C39.4446 35.2133 51.6079 38.1894 66.6122 38.1894Z" fill="#FFD15D"/>
<path d="M94.2404 31.1074C94.2404 35.5712 81.7549 39.1904 66.3535 39.1904C50.9521 39.1904 38.4666 35.5718 38.4666 31.1074H94.2404Z" fill="#324A5E"/>
</g>
</svg>
