<svg width="24" height="24" viewBox="0 0 24 24" fill="none" xmlns="http://www.w3.org/2000/svg">
<path fill-rule="evenodd" clip-rule="evenodd" d="M21.3989 21.3987C20.2311 22.6261 18.6702 23.3729 16.7159 23.6393C15.3445 23.9202 13.7726 24.0371 12.0001 23.9898C10.2275 24.0371 8.65546 23.9202 7.28407 23.6393C5.32992 23.3729 3.76903 22.6261 2.6012 21.3987C1.37386 20.2309 0.627215 18.67 0.360679 16.7159C0.0798918 15.3445 -0.0370065 13.7724 0.0101765 12.0001C-0.0370065 10.2275 0.0798918 8.65547 0.360679 7.28408C0.627215 5.32993 1.37386 3.76885 2.6012 2.60121C3.76903 1.37387 5.32992 0.627033 7.28407 0.360689C8.65546 0.0797095 10.2275 -0.0369963 12.0001 0.0101867C13.7726 -0.0369963 15.3445 0.0797095 16.7159 0.360689C18.6702 0.627033 20.2311 1.37387 21.3989 2.60121C22.6261 3.76885 23.3729 5.32993 23.6392 7.28408C23.9202 8.65547 24.0371 10.2275 23.9898 12.0001C24.0371 13.7724 23.9202 15.3445 23.6392 16.7159C23.3729 18.67 22.6261 20.2309 21.3989 21.3987Z" fill="#E9F0FE"/>
<path fill-rule="evenodd" clip-rule="evenodd" d="M7.85733 13.5865C8.27498 13.8154 8.04347 14.3156 7.50885 14.9224C6.86973 15.647 5.16456 16.4485 4.16595 15.896C4.07449 15.8456 3.98928 15.7831 3.91228 15.7102C2.98016 14.8257 6.75151 13.4247 7.29045 13.4571C7.54476 13.4726 7.73112 13.5167 7.85805 13.5865" fill="#5FBBE8"/>
<path fill-rule="evenodd" clip-rule="evenodd" d="M7.8644 13.5617C8.26709 13.8093 8.04701 14.3424 7.53415 14.99C6.92283 15.7621 5.28336 16.6106 4.32004 16.0125C5.31667 15.907 6.99699 15.4402 7.8644 13.5617Z" fill="#5FAEDE"/>
<path fill-rule="evenodd" clip-rule="evenodd" d="M4.77094 14.6489C5.04581 14.5062 5.52249 14.315 5.57486 14.4105C5.62873 14.5076 5.24309 14.9069 4.78454 15.1179C4.47155 15.2621 4.06664 15.346 4.02816 15.255C3.98412 15.152 4.41219 14.835 4.77094 14.6489Z" fill="#B1ECED"/>
<path fill-rule="evenodd" clip-rule="evenodd" d="M15.7863 14.729C15.8723 16.7394 14.6278 19.1778 12.4923 19.2999C11.1683 19.3755 10.0426 18.5874 9.35718 17.4868C8.93594 16.8121 8.68059 16.0191 8.64708 15.2357C8.55899 13.176 10.7059 13.1514 12.0644 13.0738C13.5538 12.9887 15.3166 12.7683 15.7084 14.2045C15.751 14.3588 15.7772 14.5334 15.7856 14.729" fill="#5FBBE8"/>
<path fill-rule="evenodd" clip-rule="evenodd" d="M15.7885 14.7768C15.8736 16.7658 14.6394 19.1789 12.5198 19.2999C11.2065 19.3749 10.0894 18.5954 9.40983 17.5069C10.7538 18.0798 14.5606 19.2081 15.7108 14.2581C15.7534 14.4107 15.7795 14.5836 15.7878 14.7768" fill="#5FAEDE"/>
<path fill-rule="evenodd" clip-rule="evenodd" d="M9.40425 14.3465C9.14053 14.8274 9.36893 15.4779 9.86664 15.7106C10.3916 15.9556 11.0799 15.669 11.248 15.1125C11.4065 14.5836 11.0326 14.0225 10.5246 13.8877C10.1174 13.7797 9.62238 13.947 9.40421 14.3457" fill="#B1ECED"/>
<path fill-rule="evenodd" clip-rule="evenodd" d="M17.3652 11.4849C16.8248 12.2193 16.3389 12.5505 16.0319 11.9565C15.9708 11.8326 15.9231 11.7016 15.8899 11.566C15.7505 11.0321 16.3646 6.96432 17.4167 7.71778C17.6885 7.91281 17.8587 8.20033 17.9512 8.53562C18.2153 9.49739 17.8359 10.8465 17.3652 11.4849Z" fill="#5FBBE8"/>
<path fill-rule="evenodd" clip-rule="evenodd" d="M17.5035 11.6224C16.9614 12.3528 16.4758 12.6823 16.1685 12.0917C16.5991 11.8133 17.3738 11.0077 18.0896 8.6889C18.354 9.64564 17.9739 10.9874 17.5035 11.6224Z" fill="#5FAEDE"/>
<path fill-rule="evenodd" clip-rule="evenodd" d="M16.7635 9.39473C16.6115 10.0098 16.2924 11.0449 16.1703 11.0232C16.0599 11.0039 16.094 10.1229 16.3967 9.2832C16.5653 8.81434 16.8338 8.31035 16.9168 8.33428C17.0197 8.36404 16.8112 9.20305 16.7635 9.39473Z" fill="#B1ECED"/>
<path fill-rule="evenodd" clip-rule="evenodd" d="M7.65619 9.3822C7.52211 9.26883 7.40937 9.12929 7.32386 8.97088C7.22688 8.79355 7.16691 8.59565 7.14802 8.39066C7.12913 8.18568 7.15177 7.9784 7.2144 7.78296C7.34623 7.38073 7.64248 7.06741 8.01097 6.92022C8.11482 6.87869 8.22501 6.84995 8.33875 6.8365C8.76876 8.39694 7.65623 9.38298 7.65623 9.38298" fill="#5FBBE8"/>
<path fill-rule="evenodd" clip-rule="evenodd" d="M7.62405 9.38478C7.49379 9.27013 7.38486 9.13035 7.30283 8.97262C7.55708 8.30244 7.77688 7.61815 7.96123 6.92281C8.06089 6.88151 8.16762 6.85297 8.27718 6.83975L7.62409 9.38555" fill="#5FAEDE"/>
<path fill-rule="evenodd" clip-rule="evenodd" d="M15.1639 9.95364C15.2442 11.9491 10.9554 13.1684 8.78416 12.2379C8.1814 11.9788 7.74117 11.5551 7.60424 10.9349C6.97294 8.08478 8.52282 5.19887 10.6375 4.9243C11.4046 4.82485 12.3384 5.01252 13.1583 5.59142C14.2089 6.33328 15.0739 7.71458 15.1632 9.95369" fill="#5FBBE8"/>
<path fill-rule="evenodd" clip-rule="evenodd" d="M13.8981 8.40279C13.9417 8.7967 13.5531 9.0921 13.0335 9.30646C12.4862 9.53009 11.7939 9.66347 11.308 9.72197C10.6128 9.80472 9.25837 9.85348 8.72492 9.45826C8.59922 9.36613 8.51929 9.24908 8.50366 9.10296C8.48161 8.89815 8.49923 8.69037 8.55545 8.49252C8.61166 8.29467 8.70525 8.11098 8.83041 7.95287C9.07557 7.63871 9.43847 7.41636 9.85971 7.36155L12.2024 7.05862C12.4321 7.02705 12.6652 7.05006 12.8848 7.12602C13.1045 7.20197 13.3055 7.32899 13.4732 7.49799C13.703 7.7335 13.8591 8.04633 13.8981 8.40279Z" fill="#294F81"/>
<path fill-rule="evenodd" clip-rule="evenodd" d="M13.8989 8.42857C13.9421 8.81428 13.5571 9.10524 13.0439 9.31433C12.5017 9.53507 11.8174 9.66552 11.3366 9.72289C10.6487 9.80511 9.30909 9.85299 8.78186 9.46565C10.138 9.24774 12.4264 8.71999 13.4791 7.54088C13.7065 7.77158 13.8609 8.0787 13.8989 8.42857Z" fill="#33487A"/>
<path fill-rule="evenodd" clip-rule="evenodd" d="M15.164 9.96195C15.2434 11.9533 10.9394 13.1712 8.76062 12.2433C10.0345 12.2965 13.8099 12.2855 14.2753 10.3442C14.676 8.67551 13.7286 6.63954 13.152 5.60851C14.2062 6.34799 15.0742 7.72708 15.164 9.96195Z" fill="#5FAEDE"/>
<path fill-rule="evenodd" clip-rule="evenodd" d="M8.57275 7.21292C8.7012 7.35499 9.35016 6.93709 9.77163 6.51592C10.1757 6.112 10.5662 5.50758 10.4508 5.36631C10.3469 5.24064 9.86292 5.50282 9.56398 5.72501C8.89522 6.22145 8.43294 7.0591 8.57278 7.21369L8.57275 7.21292ZM7.89702 10.4377C7.96719 10.9942 8.29878 11.4839 8.40806 11.432C8.5223 11.3774 8.40787 10.7175 8.31649 10.3588C8.29036 10.2558 8.13089 9.62627 8.00794 9.64645C7.91162 9.66278 7.8512 10.0781 7.89705 10.4385" fill="#B1ECED"/>
<path fill-rule="evenodd" clip-rule="evenodd" d="M13.3576 8.19106C13.3667 8.28257 13.3589 8.37525 13.3346 8.46379C13.3103 8.55233 13.2699 8.63498 13.2158 8.707C13.1617 8.77902 13.0949 8.83898 13.0192 8.88345C12.9436 8.92792 12.8606 8.95601 12.7751 8.96612C12.6427 8.98415 12.5087 8.95917 12.3903 8.89442C12.272 8.82966 12.1748 8.72813 12.1115 8.60302C12.0744 8.52844 12.0506 8.447 12.0413 8.36286C12.0321 8.27136 12.0399 8.17867 12.0643 8.09013C12.0886 8.00159 12.129 7.91894 12.1831 7.84692C12.2372 7.77491 12.304 7.71494 12.3796 7.67047C12.4553 7.62601 12.5382 7.59791 12.6238 7.5878C12.7499 7.57073 12.8776 7.59268 12.9919 7.65106C13.1062 7.70944 13.2022 7.8018 13.2686 7.91721C13.3154 7.99798 13.346 8.0905 13.3576 8.19106Z" fill="#393760"/>
<path fill-rule="evenodd" clip-rule="evenodd" d="M12.5917 7.31016C12.5716 7.31131 12.5514 7.31247 12.5314 7.31593C12.3031 7.3452 12.0983 7.46662 11.9549 7.65717C11.8515 7.79333 11.7878 7.95894 11.7718 8.13312C11.7559 8.30729 11.7885 8.48223 11.8654 8.63586C11.9479 8.79825 12.0742 8.93001 12.2279 9.01407C12.3817 9.09813 12.5558 9.13064 12.7278 9.10737C12.956 9.0781 13.1608 8.95667 13.3035 8.76617C13.4124 8.62321 13.4772 8.44782 13.489 8.26436C13.5009 8.0809 13.459 7.89848 13.3694 7.74247C13.2886 7.6019 13.1737 7.48756 13.0368 7.41149C12.8999 7.33541 12.7462 7.30041 12.5917 7.31016ZM12.5966 7.44124C12.8738 7.4254 13.127 7.57474 13.262 7.81196C13.3135 7.90174 13.3474 8.00489 13.3601 8.1162C13.371 8.2226 13.3611 8.33041 13.3312 8.43286C13.3013 8.53531 13.2519 8.63019 13.1863 8.71152C13.1206 8.79285 13.0401 8.85887 12.9497 8.90545C12.8593 8.95202 12.761 8.97813 12.6611 8.98214C12.3695 8.9988 12.1062 8.83304 11.9767 8.57309C11.9356 8.49047 11.9093 8.40028 11.899 8.3071C11.8881 8.20083 11.898 8.09315 11.9278 7.99081C11.9576 7.88847 12.0069 7.79368 12.0724 7.71238C12.1379 7.63108 12.2182 7.56503 12.3085 7.51838C12.3987 7.47172 12.4968 7.44545 12.5966 7.44124Z" fill="#46AED2"/>
<path fill-rule="evenodd" clip-rule="evenodd" d="M13.3409 7.81255C13.1533 8.53582 12.5034 8.60152 12.1134 8.57207C12.0735 8.48915 12.0479 8.39908 12.0379 8.30619C12.0143 8.10594 12.066 7.90326 12.1814 7.74256C12.2969 7.58186 12.4668 7.47623 12.6539 7.44881C12.7894 7.43105 12.9266 7.45601 13.0485 7.52063C13.1704 7.58525 13.2718 7.68672 13.3401 7.81259" fill="#2F4572"/>
<path fill-rule="evenodd" clip-rule="evenodd" d="M12.5496 7.92517C12.5523 7.9526 12.55 7.98038 12.5427 8.00691C12.5354 8.03344 12.5232 8.05821 12.507 8.07979C12.4908 8.10137 12.4708 8.11934 12.4481 8.13267C12.4254 8.146 12.4006 8.15442 12.3749 8.15746C12.3232 8.16469 12.2712 8.14978 12.23 8.11598C12.1888 8.08219 12.1619 8.03225 12.1552 7.97704C12.1523 7.94955 12.1546 7.9217 12.1619 7.89508C12.1691 7.86846 12.1812 7.84361 12.1975 7.82194C12.2137 7.80028 12.2337 7.78223 12.2565 7.76885C12.2792 7.75547 12.3041 7.74702 12.3298 7.74398C12.3816 7.73675 12.4338 7.75176 12.475 7.78572C12.5162 7.81967 12.543 7.86981 12.5496 7.92517ZM13.3449 8.24331C13.3847 8.26265 13.3604 8.50333 13.2021 8.61426C13.0607 8.71266 12.8551 8.67886 12.8461 8.63692C12.839 8.60568 12.9412 8.58363 13.1018 8.45944C13.2707 8.3286 13.3169 8.22947 13.3449 8.24331Z" fill="#B1ECED"/>
<path fill-rule="evenodd" clip-rule="evenodd" d="M10.3296 8.49184C10.3388 8.58335 10.331 8.67603 10.3067 8.76457C10.2823 8.85311 10.2419 8.93576 10.1878 9.00778C10.1337 9.0798 10.0669 9.13976 9.99128 9.18423C9.91566 9.2287 9.83269 9.25679 9.74714 9.2669C9.6147 9.28487 9.48058 9.25978 9.36222 9.19488C9.24386 9.12999 9.14675 9.02829 9.08351 8.90303C9.04647 8.82868 9.02269 8.74751 9.01337 8.66364C9.00428 8.57209 9.01217 8.47938 9.03658 8.39084C9.061 8.30229 9.10145 8.21964 9.15563 8.14763C9.20981 8.07562 9.27665 8.01567 9.35231 7.97121C9.42797 7.92675 9.51097 7.89865 9.59654 7.88854C9.72256 7.8715 9.85023 7.89338 9.96448 7.95161C10.0787 8.00984 10.1748 8.10198 10.2414 8.21717C10.2882 8.29949 10.3188 8.39124 10.3296 8.49184Z" fill="#393760"/>
<path fill-rule="evenodd" clip-rule="evenodd" d="M9.56511 7.61091C9.54495 7.61206 9.52479 7.61321 9.50473 7.61667C9.27577 7.64598 9.07095 7.76741 8.92827 7.95791C8.82463 8.09395 8.76074 8.25954 8.74468 8.43375C8.72862 8.60796 8.76112 8.78297 8.83805 8.93665C8.9206 9.09916 9.04702 9.231 9.20091 9.31507C9.35481 9.39913 9.52908 9.43155 9.70114 9.40811C9.92533 9.38097 10.1309 9.25968 10.2728 9.0709C10.4147 8.88211 10.4812 8.64129 10.4577 8.40135C10.4443 8.27449 10.4051 8.15252 10.3428 8.04398C10.2621 7.90327 10.1472 7.78877 10.0103 7.71256C9.87346 7.63634 9.71965 7.60123 9.56511 7.61091ZM9.57143 7.7419C9.8486 7.72606 10.0996 7.87552 10.2346 8.11275C10.2868 8.20249 10.3208 8.30563 10.3328 8.41699C10.3436 8.52332 10.3338 8.63106 10.3039 8.73346C10.274 8.83586 10.2248 8.93069 10.1592 9.012C10.0936 9.09332 10.0131 9.15936 9.92283 9.20597C9.83253 9.25259 9.73435 9.27878 9.63444 9.28289C9.34287 9.29955 9.07887 9.13383 8.9494 8.87388C8.90827 8.79126 8.8819 8.70107 8.87163 8.60788C8.86089 8.50144 8.87084 8.39361 8.90084 8.29115C8.93085 8.18869 8.98026 8.09382 9.04597 8.0125C9.11169 7.93118 9.19229 7.86517 9.28271 7.8186C9.37314 7.77203 9.47144 7.74592 9.57143 7.7419Z" fill="#46AED2"/>
<path fill-rule="evenodd" clip-rule="evenodd" d="M10.3138 8.11581C10.1262 8.83832 9.47559 8.90328 9.08628 8.87303C9.0462 8.7904 9.02037 8.70061 9.01004 8.60795C8.98631 8.40759 9.03783 8.20472 9.15331 8.04385C9.26878 7.88297 9.43878 7.77723 9.62602 7.74981C9.90997 7.7112 10.1755 7.8651 10.3138 8.11581Z" fill="#2F4572"/>
<path fill-rule="evenodd" clip-rule="evenodd" d="M9.5299 8.3646C9.53263 8.39203 9.53028 8.4198 9.52297 8.44633C9.51567 8.47285 9.50356 8.49762 9.48733 8.51919C9.4711 8.54077 9.45108 8.55874 9.42841 8.57206C9.40575 8.58539 9.38088 8.59382 9.35524 8.59686C9.30357 8.60408 9.25149 8.58917 9.21034 8.55538C9.16919 8.5216 9.14229 8.47166 9.13552 8.41646C9.13269 8.38898 9.13496 8.36113 9.14222 8.33452C9.14947 8.3079 9.16157 8.28305 9.1778 8.26139C9.19403 8.23973 9.21408 8.22169 9.2368 8.20831C9.25951 8.19493 9.28444 8.18648 9.31015 8.18344C9.36181 8.17621 9.41389 8.19112 9.45505 8.22491C9.4962 8.2587 9.52309 8.30863 9.52987 8.36383L9.5299 8.3646ZM10.1862 8.55171C10.2259 8.57104 10.2023 8.81165 10.0434 8.9226C9.90338 9.0209 9.69714 8.98715 9.68814 8.94521C9.68103 8.91397 9.78249 8.89197 9.94374 8.76776C10.1126 8.63694 10.1589 8.53783 10.1869 8.55166" fill="#B1ECED"/>
<path fill-rule="evenodd" clip-rule="evenodd" d="M11.1976 7.25718C11.2096 7.30221 10.9181 7.44971 10.6081 7.51979C10.1043 7.63435 9.61894 7.5277 9.62 7.46898C9.61953 7.44158 9.94074 7.39753 10.5846 7.30858C11.1011 7.23826 11.1915 7.23315 11.1976 7.25718Z" fill="#296ABD"/>
<path fill-rule="evenodd" clip-rule="evenodd" d="M7.14815 8.01342C7.13319 8.00343 6.77444 7.77131 6.51495 7.26163C6.27692 6.79489 6.07914 5.99664 6.48961 4.84461L6.68386 4.918C6.37782 5.77746 6.38098 6.52791 6.6932 7.14846C6.92671 7.61158 7.25494 7.82685 7.25794 7.829L7.14815 8.01342Z" fill="#5FBBE8"/>
<path fill-rule="evenodd" clip-rule="evenodd" d="M7.24542 4.7196C7.23461 4.8682 7.16949 5.00665 7.06421 5.10484C6.95893 5.20304 6.82203 5.25302 6.68328 5.24392C6.61456 5.2409 6.54719 5.22332 6.48506 5.19221C6.42292 5.16109 6.36724 5.11706 6.32123 5.06265C6.27523 5.00824 6.23981 4.94454 6.21701 4.8752C6.19422 4.80587 6.1845 4.73228 6.18843 4.65869C6.19923 4.50994 6.26445 4.37136 6.36989 4.27313C6.47532 4.17491 6.61242 4.12501 6.7513 4.13432C6.81995 4.13745 6.88724 4.1551 6.9493 4.18626C7.01136 4.21742 7.06695 4.26147 7.11289 4.31587C7.15882 4.37027 7.19417 4.43396 7.21692 4.50325C7.23967 4.57254 7.24935 4.64607 7.24542 4.7196Z" fill="#294F81"/>
<path fill-rule="evenodd" clip-rule="evenodd" d="M6.44721 4.58391C6.46385 4.73673 6.59547 4.84434 6.74115 4.82519C6.81005 4.81668 6.87319 4.77926 6.91671 4.72115C6.96023 4.66303 6.98057 4.58897 6.97327 4.51522C6.96441 4.4414 6.92858 4.37457 6.87363 4.32935C6.81868 4.28412 6.74908 4.26419 6.68005 4.2739C6.64586 4.27802 6.61272 4.28931 6.58252 4.30712C6.55231 4.32494 6.52564 4.34892 6.50401 4.37771C6.48239 4.4065 6.46624 4.43953 6.4565 4.47492C6.44675 4.5103 6.44359 4.54733 6.44721 4.58391Z" fill="#296ABD"/>
<path fill-rule="evenodd" clip-rule="evenodd" d="M11.4879 11.4039C11.1515 11.457 10.8672 11.3314 10.6482 11.1467C10.2535 10.8147 10.071 10.2888 10.1778 10.2596C10.3452 10.2146 10.7891 10.4336 11.2465 10.3604C11.7718 10.2773 12.1045 10.0356 12.3722 9.97717C12.3838 9.97453 12.3955 9.97232 12.4072 9.97055C12.6814 9.92639 12.52 11.2402 11.4886 11.4039" fill="#294F81"/>
<path fill-rule="evenodd" clip-rule="evenodd" d="M11.5248 11.4044C11.199 11.457 10.9232 11.3307 10.7112 11.1453C11.1414 10.9888 11.9778 10.6177 12.3772 9.97762C12.3884 9.97501 12.3996 9.97282 12.4108 9.97107C12.6757 9.92739 12.5222 11.2425 11.524 11.4044" fill="#33487A"/>
<path fill-rule="evenodd" clip-rule="evenodd" d="M16.4608 21.0446C16.4837 21.5761 14.8478 22.1008 12.8062 22.2167C10.7647 22.3326 9.09166 21.9958 9.06878 21.4642C9.04592 20.9334 10.6818 20.408 12.7234 20.2921C14.7649 20.1762 16.4387 20.5138 16.4615 21.0446" fill="#C9EAFF"/>
</svg>
