<svg width="24" height="24" viewBox="0 0 24 24" fill="none" xmlns="http://www.w3.org/2000/svg">
<path fill-rule="evenodd" clip-rule="evenodd" d="M17.9031 16.504C17.9031 15.151 18.4411 13.853 19.3981 12.896C19.9451 12.349 19.9451 11.462 19.3981 10.916C18.4411 9.958 17.9031 8.66 17.9031 7.306C17.9031 6.533 17.2761 5.906 16.5021 5.906H16.3301C15.0861 5.906 13.8951 5.412 13.0161 4.533L12.8941 4.411C12.6211 4.137 12.2621 4 11.9031 4C11.5441 4 11.1861 4.137 10.9131 4.411C9.95611 5.368 8.65811 5.906 7.30411 5.906C6.53111 5.906 5.90311 6.533 5.90311 7.306C5.90311 8.66 5.36611 9.958 4.40911 10.916C3.86211 11.462 3.86211 12.349 4.40911 12.896C5.36611 13.853 5.90311 15.151 5.90311 16.504C5.90311 17.279 6.53111 17.906 7.30411 17.906C8.65811 17.906 9.95611 18.443 10.9131 19.4C11.1861 19.674 11.5441 19.811 11.9031 19.811C12.2621 19.811 12.6211 19.674 12.8941 19.4C13.8511 18.443 15.1491 17.906 16.5021 17.906C17.2761 17.906 17.9031 17.279 17.9031 16.504ZM19.9031 7.306C19.9031 8.135 20.2261 8.915 20.8121 9.5C21.4551 10.143 21.8081 10.998 21.8081 11.906C21.8081 12.814 21.4551 13.668 20.8121 14.31C20.2261 14.896 19.9031 15.676 19.9031 16.504C19.9031 18.38 18.3771 19.906 16.5021 19.906C15.6731 19.906 14.8941 20.228 14.3081 20.815C13.6661 21.457 12.8121 21.811 11.9031 21.811C10.9951 21.811 10.1411 21.457 9.49911 20.815C8.91311 20.228 8.13311 19.906 7.30411 19.906C5.42911 19.906 3.90311 18.38 3.90311 16.504C3.90311 15.676 3.58111 14.896 2.99511 14.31C1.66911 12.984 1.66911 10.827 2.99511 9.5C3.58111 8.915 3.90311 8.135 3.90311 7.306C3.90311 5.431 5.42911 3.906 7.30411 3.906C8.13311 3.906 8.91311 3.583 9.49911 2.997C10.1411 2.354 10.9951 2 11.9031 2C12.8121 2 13.6661 2.354 14.3081 2.997L14.4301 3.119C14.9381 3.626 15.6121 3.906 16.3301 3.906H16.5021C18.3771 3.906 19.9031 5.431 19.9031 7.306ZM13.6445 7.9464C13.9785 7.5074 14.6055 7.4204 15.0455 7.7544C15.4855 8.0884 15.5715 8.7154 15.2375 9.1554L10.1625 15.8464C9.82851 16.2854 9.20151 16.3714 8.76151 16.0384C8.32051 15.7044 8.23451 15.0764 8.56851 14.6374L13.6445 7.9464ZM11 9.0513C11 9.8793 10.328 10.5513 9.50001 10.5513C8.67201 10.5513 8.00001 9.8793 8.00001 9.0513C8.00001 8.2233 8.67201 7.5513 9.50001 7.5513C10.328 7.5513 11 8.2233 11 9.0513ZM14.5 13.2603C13.672 13.2603 13 13.9313 13 14.7603C13 15.5883 13.672 16.2603 14.5 16.2603C15.329 16.2603 16 15.5883 16 14.7603C16 13.9313 15.329 13.2603 14.5 13.2603Z" fill="white"/>
<mask id="mask0_73_22542" style="mask-type:alpha" maskUnits="userSpaceOnUse" x="2" y="2" width="20" height="20">
<path fill-rule="evenodd" clip-rule="evenodd" d="M17.9031 16.504C17.9031 15.151 18.4411 13.853 19.3981 12.896C19.9451 12.349 19.9451 11.462 19.3981 10.916C18.4411 9.958 17.9031 8.66 17.9031 7.306C17.9031 6.533 17.2761 5.906 16.5021 5.906H16.3301C15.0861 5.906 13.8951 5.412 13.0161 4.533L12.8941 4.411C12.6211 4.137 12.2621 4 11.9031 4C11.5441 4 11.1861 4.137 10.9131 4.411C9.95611 5.368 8.65811 5.906 7.30411 5.906C6.53111 5.906 5.90311 6.533 5.90311 7.306C5.90311 8.66 5.36611 9.958 4.40911 10.916C3.86211 11.462 3.86211 12.349 4.40911 12.896C5.36611 13.853 5.90311 15.151 5.90311 16.504C5.90311 17.279 6.53111 17.906 7.30411 17.906C8.65811 17.906 9.95611 18.443 10.9131 19.4C11.1861 19.674 11.5441 19.811 11.9031 19.811C12.2621 19.811 12.6211 19.674 12.8941 19.4C13.8511 18.443 15.1491 17.906 16.5021 17.906C17.2761 17.906 17.9031 17.279 17.9031 16.504ZM19.9031 7.306C19.9031 8.135 20.2261 8.915 20.8121 9.5C21.4551 10.143 21.8081 10.998 21.8081 11.906C21.8081 12.814 21.4551 13.668 20.8121 14.31C20.2261 14.896 19.9031 15.676 19.9031 16.504C19.9031 18.38 18.3771 19.906 16.5021 19.906C15.6731 19.906 14.8941 20.228 14.3081 20.815C13.6661 21.457 12.8121 21.811 11.9031 21.811C10.9951 21.811 10.1411 21.457 9.49911 20.815C8.91311 20.228 8.13311 19.906 7.30411 19.906C5.42911 19.906 3.90311 18.38 3.90311 16.504C3.90311 15.676 3.58111 14.896 2.99511 14.31C1.66911 12.984 1.66911 10.827 2.99511 9.5C3.58111 8.915 3.90311 8.135 3.90311 7.306C3.90311 5.431 5.42911 3.906 7.30411 3.906C8.13311 3.906 8.91311 3.583 9.49911 2.997C10.1411 2.354 10.9951 2 11.9031 2C12.8121 2 13.6661 2.354 14.3081 2.997L14.4301 3.119C14.9381 3.626 15.6121 3.906 16.3301 3.906H16.5021C18.3771 3.906 19.9031 5.431 19.9031 7.306ZM13.6445 7.9464C13.9785 7.5074 14.6055 7.4204 15.0455 7.7544C15.4855 8.0884 15.5715 8.7154 15.2375 9.1554L10.1625 15.8464C9.82851 16.2854 9.20151 16.3714 8.76151 16.0384C8.32051 15.7044 8.23451 15.0764 8.56851 14.6374L13.6445 7.9464ZM11 9.0513C11 9.8793 10.328 10.5513 9.50001 10.5513C8.67201 10.5513 8.00001 9.8793 8.00001 9.0513C8.00001 8.2233 8.67201 7.5513 9.50001 7.5513C10.328 7.5513 11 8.2233 11 9.0513ZM14.5 13.2603C13.672 13.2603 13 13.9313 13 14.7603C13 15.5883 13.672 16.2603 14.5 16.2603C15.329 16.2603 16 15.5883 16 14.7603C16 13.9313 15.329 13.2603 14.5 13.2603Z" fill="white"/>
</mask>
<g mask="url(#mask0_73_22542)">
<rect width="24" height="24" fill="#7765D5"/>
</g>
</svg>
